<?xml version="1.0" encoding="UTF-8"?>
<svg id="Layer_2" xmlns="http://www.w3.org/2000/svg" viewBox="0 0 250.89 250.89">
  <defs>
    <style>
      .cls-1 {
        fill: #fff;
        stroke-width: 11px;
      }

      .cls-1, .cls-2, .cls-3 {
        stroke: #000;
        stroke-miterlimit: 10;
      }

      .cls-2 {
        stroke-width: 3px;
      }

      .cls-2, .cls-3 {
        fill: none;
      }

      .cls-3 {
        stroke-width: 5px;
      }
    </style>
  </defs>
  <g id="Layer_1-2" data-name="Layer_1">
    <g>
      <circle class="cls-1" cx="125.44" cy="125.44" r="119.94"/>
      <g>
        <path d="M215.19,58.05c-11.72-11.75-30.75-11.78-42.5-.06-.02.02-.04.04-.06.06-5.43,5.46-8.71,12.71-9.21,20.4-.27,4.22.35,8.44,1.82,12.4,1.54,4.11,3.9,7.86,6.94,11.03l20.04,21.34c.88.94,2.35.98,3.29.1.04-.03.07-.07.1-.1l20.04-21.34c3.04-3.17,5.4-6.92,6.94-11.03,1.47-3.96,2.09-8.19,1.82-12.4-.51-7.69-3.78-14.94-9.21-20.4ZM218.21,89.26c-1.33,3.52-3.36,6.73-5.96,9.44l-18.34,19.53-18.34-19.53c-2.61-2.71-4.64-5.92-5.96-9.44-1.25-3.35-1.77-6.93-1.55-10.5.43-6.57,3.22-12.76,7.86-17.42,9.9-9.93,25.98-9.96,35.91-.05.02.02.04.04.05.05,4.64,4.67,7.43,10.86,7.86,17.42.23,3.57-.3,7.15-1.55,10.5h0Z"/>
        <path d="M193.91,63.52c-7.96,0-14.43,6.62-14.43,14.75s6.47,14.75,14.43,14.75,14.43-6.62,14.43-14.75-6.47-14.75-14.43-14.75ZM193.91,88.37c-5.39,0-9.77-4.53-9.77-10.09s4.38-10.09,9.77-10.09,9.77,4.53,9.77,10.09-4.38,10.1-9.77,10.1h0Z"/>
        <path class="cls-2" d="M185.05,123.96c0-4.89,3.96-8.85,8.85-8.85,4.89,0,8.85,3.96,8.85,8.85,0,4.89-3.96,8.85-8.85,8.85-4.89,0-8.85-3.96-8.85-8.85Z"/>
        <path class="cls-2" d="M49.71,198.54h0c0-4.89,3.96-8.85,8.85-8.85,4.89,0,8.85,3.96,8.85,8.85,0,4.89-3.96,8.85-8.85,8.85-4.89,0-8.85-3.97-8.85-8.85Z"/>
        <path class="cls-3" d="M67.18,199.77c13,.44,56.4.25,92.9-30.97,15.29-13.08,24.62-27.53,30.19-38.32"/>
        <path d="M62.52,165.34c1.23,0,2.44-.23,3.59-.67l18.5-7.12-8.85,23.41c-.45,1.2.15,2.55,1.35,3,.26.1.54.15.82.15h12.4c.83,0,1.6-.44,2.02-1.16l21.54-37.2,31.23-12.36c4.29-1.7,6.4-6.56,4.7-10.85-.88-2.22-2.67-3.96-4.91-4.78-8.86-3.22-18.67-2.63-27.08,1.64l-14.9,7.33-27.63-10.15c-.67-.24-1.41-.17-2.01.2l-7.68,4.68c-1.1.67-1.45,2.1-.78,3.2.18.3.43.56.73.75l17.36,11.19-19.92,9.81-12.14-8.39c-4.99-3.46-11.38-4.19-17.02-1.95l-5.93,2.35c-1.2.47-1.78,1.83-1.31,3.02.15.37.39.7.7.95l23.16,18.8c3.26,2.67,7.33,4.14,11.54,4.16.18,0,.35,0,.53,0ZM88.99,179.45h-7.69l11.11-29.39,17.62-6.96-21.05,36.34ZM71.19,123.51l3.55-2.16,22.41,8.23-9.37,4.62-16.58-10.69ZM53.38,157.57l-20.07-16.29,2.23-.88c4.19-1.67,8.94-1.12,12.65,1.45l13.27,9.17c.69.48,1.6.55,2.35.17l56.09-27.62c7.26-3.69,15.73-4.21,23.39-1.43,1.92.7,2.91,2.83,2.21,4.75-.36.99-1.13,1.79-2.12,2.17l-25.81,10.22c.44-1.21-.19-2.54-1.39-2.98-.53-.19-1.12-.19-1.65.02l-24.8,9.79c-.61.24-1.09.73-1.32,1.34l-1.61,4.25-22.4,8.63c-.65.24-1.34.35-2.04.35-3.28.08-6.47-1.03-9-3.12Z"/>
      </g>
    </g>
  </g>
</svg>